<svg width="626" height="75" viewBox="0 0 626 75" fill="none" xmlns="http://www.w3.org/2000/svg">
<g clip-path="url(#clip0_5_30312)">
<rect width="626" height="75" rx="32" fill="#F24405" fill-opacity="0.2"/>
<path d="M65.1872 62.2019C82.2602 77.4931 83.7046 103.729 68.4134 120.802C53.1222 137.875 26.8859 139.32 9.81284 124.029C-7.26016 108.737 -8.70461 82.5011 6.58659 65.4281C13.9206 57.2395 23.7723 52.6461 33.9233 51.77C36.2859 51.566 38.2336 49.6746 38.2291 47.3032L38.2273 46.3735C38.2251 45.2368 37.4978 44.2554 36.6403 43.5092C34.1774 41.3657 33.9185 37.6314 36.062 35.1685C38.2055 32.7056 41.9398 32.4467 44.4027 34.5902C46.8656 36.7337 47.1245 40.468 44.981 42.9309C44.7985 43.1406 44.6044 43.3344 44.4005 43.5121C42.9445 44.7809 41.3883 46.3308 41.392 48.262C41.3958 50.2662 42.9272 51.9193 44.8996 52.2748C52.2064 53.5915 59.2507 56.885 65.1872 62.2019Z" fill="#CC561E"/>
<circle cx="28.4258" cy="25.7236" r="1.52439" fill="#CC561E"/>
<circle cx="56.5757" cy="45.7007" r="2.28659" fill="#CC561E"/>
<circle cx="67.4565" cy="28.0464" r="6.04636" fill="#CC561E"/>
</g>
<defs>
<clipPath id="clip0_5_30312">
<rect width="626" height="75" rx="32" fill="white"/>
</clipPath>
</defs>
</svg>
