<svg width="60" height="60" viewBox="0 0 60 60" fill="none" xmlns="http://www.w3.org/2000/svg">
<g filter="url(#filter0_d_5_30246)">
<rect x="16" y="12" width="28" height="28" rx="8" fill="#783EFD" shape-rendering="crispEdges"/>
<path d="M20 29.2895V19.7095C20 18.3795 20.77 18.0595 21.71 18.9995L24.3 21.5895C24.69 21.9795 25.33 21.9795 25.71 21.5895L29.29 17.9995C29.68 17.6095 30.32 17.6095 30.7 17.9995L34.29 21.5895C34.68 21.9795 35.32 21.9795 35.7 21.5895L38.29 18.9995C39.23 18.0595 40 18.3795 40 19.7095V29.2995C40 32.2995 38 34.2995 35 34.2995H25C22.24 34.2895 20 32.0495 20 29.2895Z" fill="#F4FFFC"/>
</g>
<defs>
<filter id="filter0_d_5_30246" x="0" y="0" width="60" height="60" filterUnits="userSpaceOnUse" color-interpolation-filters="sRGB">
<feFlood flood-opacity="0" result="BackgroundImageFix"/>
<feColorMatrix in="SourceAlpha" type="matrix" values="0 0 0 0 0 0 0 0 0 0 0 0 0 0 0 0 0 0 127 0" result="hardAlpha"/>
<feOffset dy="4"/>
<feGaussianBlur stdDeviation="8"/>
<feComposite in2="hardAlpha" operator="out"/>
<feColorMatrix type="matrix" values="0 0 0 0 0.623529 0 0 0 0 0.596078 0 0 0 0 0.996078 0 0 0 0.64 0"/>
<feBlend mode="normal" in2="BackgroundImageFix" result="effect1_dropShadow_5_30246"/>
<feBlend mode="normal" in="SourceGraphic" in2="effect1_dropShadow_5_30246" result="shape"/>
</filter>
</defs>
</svg>
