<svg width="57" height="57" viewBox="0 0 57 57" fill="none" xmlns="http://www.w3.org/2000/svg">
<g filter="url(#filter0_d_5_30257)">
<rect x="16" y="12" width="25" height="25" rx="8" fill="#00DEA3" shape-rendering="crispEdges"/>
<path d="M34.03 20.27C33.96 20.26 33.89 20.26 33.82 20.27C32.27 20.22 31.04 18.95 31.04 17.39C31.04 15.8 32.33 14.5 33.93 14.5C35.52 14.5 36.82 15.79 36.82 17.39C36.81 18.95 35.58 20.22 34.03 20.27Z" fill="#F4FFFC"/>
<path d="M37.2896 27.2004C36.1696 27.9504 34.5996 28.2304 33.1496 28.0404C33.5296 27.2204 33.7296 26.3104 33.7396 25.3504C33.7396 24.3504 33.5196 23.4004 33.0996 22.5704C34.5796 22.3704 36.1496 22.6504 37.2796 23.4004C38.8596 24.4404 38.8596 26.1504 37.2896 27.2004Z" fill="#F4FFFC"/>
<path d="M22.9402 20.27C23.0102 20.26 23.0802 20.26 23.1502 20.27C24.7002 20.22 25.9302 18.95 25.9302 17.39C25.9302 15.79 24.6402 14.5 23.0402 14.5C21.4502 14.5 20.1602 15.79 20.1602 17.39C20.1602 18.95 21.3902 20.22 22.9402 20.27Z" fill="#F4FFFC"/>
<path d="M23.0501 25.3496C23.0501 26.3196 23.2601 27.2396 23.6401 28.0696C22.2301 28.2196 20.7601 27.9196 19.6801 27.2096C18.1001 26.1596 18.1001 24.4496 19.6801 23.3996C20.7501 22.6796 22.2601 22.3896 23.6801 22.5496C23.2701 23.3896 23.0501 24.3396 23.0501 25.3496Z" fill="#F4FFFC"/>
<path d="M28.6198 28.37C28.5398 28.36 28.4498 28.36 28.3598 28.37C26.5198 28.31 25.0498 26.8 25.0498 24.94C25.0598 23.04 26.5898 21.5 28.4998 21.5C30.3998 21.5 31.9398 23.04 31.9398 24.94C31.9298 26.8 30.4698 28.31 28.6198 28.37Z" fill="#F4FFFC"/>
<path d="M25.3698 30.4396C23.8598 31.4496 23.8598 33.1096 25.3698 34.1096C27.0898 35.2596 29.9098 35.2596 31.6298 34.1096C33.1398 33.0996 33.1398 31.4396 31.6298 30.4396C29.9198 29.2896 27.0998 29.2896 25.3698 30.4396Z" fill="#F4FFFC"/>
</g>
<defs>
<filter id="filter0_d_5_30257" x="0" y="0" width="57" height="57" filterUnits="userSpaceOnUse" color-interpolation-filters="sRGB">
<feFlood flood-opacity="0" result="BackgroundImageFix"/>
<feColorMatrix in="SourceAlpha" type="matrix" values="0 0 0 0 0 0 0 0 0 0 0 0 0 0 0 0 0 0 127 0" result="hardAlpha"/>
<feOffset dy="4"/>
<feGaussianBlur stdDeviation="8"/>
<feComposite in2="hardAlpha" operator="out"/>
<feColorMatrix type="matrix" values="0 0 0 0 0.501961 0 0 0 0 0.917647 0 0 0 0 1 0 0 0 0.64 0"/>
<feBlend mode="normal" in2="BackgroundImageFix" result="effect1_dropShadow_5_30257"/>
<feBlend mode="normal" in="SourceGraphic" in2="effect1_dropShadow_5_30257" result="shape"/>
</filter>
</defs>
</svg>
