<svg width="36" height="36" viewBox="0 0 36 36" fill="none" xmlns="http://www.w3.org/2000/svg">
<path fill-rule="evenodd" clip-rule="evenodd" d="M25.592 16.195C25.9249 13.8833 24.2305 12.6406 21.9137 11.8116L22.6652 8.68015L20.8302 8.20511L20.0985 11.254C19.6161 11.1292 19.1207 11.0114 18.6284 10.8946L19.3653 7.82562L17.5313 7.35059L16.7793 10.481C16.38 10.3865 15.988 10.2931 15.6075 10.1948L15.6096 10.1851L13.079 9.52871L12.5909 11.5646C12.5909 11.5646 13.9523 11.8887 13.9236 11.9088C14.6668 12.1015 14.8011 12.6124 14.7786 13.0174L13.9225 16.5848C13.9738 16.5984 14.0401 16.6179 14.1133 16.6483L14.0511 16.6322C14.0086 16.6211 13.9645 16.6096 13.9194 16.5984L12.7194 21.5958C12.6285 21.8303 12.398 22.1821 11.8785 22.0486C11.8968 22.0762 10.5447 21.7027 10.5447 21.7027L9.63379 23.8847L12.0217 24.503C12.2884 24.5724 12.5519 24.6438 12.8126 24.7144L12.8127 24.7145C12.9863 24.7615 13.1586 24.8082 13.3299 24.8537L12.5705 28.021L14.4034 28.4961L15.1554 25.3624C15.6561 25.5036 16.1422 25.6339 16.6178 25.7566L15.8683 28.8755L17.7033 29.3506L18.4627 26.1893C21.5917 26.8044 23.9446 26.5563 24.935 23.6165C25.7331 21.2494 24.8953 19.884 23.249 18.9937C24.4479 18.7065 25.351 17.8872 25.592 16.195ZM21.3994 22.3021C20.8791 24.4738 17.6068 23.5759 16.1095 23.1651L16.1095 23.1651C15.9748 23.1282 15.8544 23.0952 15.7518 23.0687L16.7594 18.8726C16.8844 18.905 17.0371 18.9406 17.2101 18.9809L17.2102 18.9809C18.7588 19.3419 21.9325 20.0816 21.3994 22.3021ZM17.5214 17.0337C18.7697 17.3797 21.4927 18.1346 21.967 16.1608C22.4513 14.1419 19.8048 13.5333 18.5123 13.2361C18.3669 13.2027 18.2387 13.1732 18.1339 13.1461L17.2204 16.9518C17.3067 16.9741 17.4079 17.0022 17.5214 17.0337Z" fill="#2A2B31"/>
</svg>
