<svg width="105" height="104" viewBox="0 0 105 104" fill="none" xmlns="http://www.w3.org/2000/svg">
<g filter="url(#filter0_d_5_30492)">
<circle cx="52.5" cy="46" r="36" fill="white"/>
</g>
<path opacity="0.4" d="M66.6434 43.8291C66.6434 51.9791 60.7267 59.6124 52.6434 61.8457C52.0934 61.9957 51.4933 61.9957 50.9433 61.8457C42.86 59.6124 36.9434 51.9791 36.9434 43.8291V36.5124C36.9434 35.1458 37.9767 33.5958 39.2601 33.0791L48.5433 29.2791C50.6267 28.4291 52.9767 28.4291 55.06 29.2791L64.3434 33.0791C65.61 33.5958 66.6601 35.1458 66.6601 36.5124L66.6434 43.8291Z" fill="#00DEA3"/>
<path d="M55.9603 42.7956C55.9603 40.4956 54.0936 38.6289 51.7936 38.6289C49.4936 38.6289 47.627 40.4956 47.627 42.7956C47.627 44.6622 48.8603 46.2122 50.5436 46.7456V51.1289C50.5436 51.8122 51.1103 52.3789 51.7936 52.3789C52.477 52.3789 53.0436 51.8122 53.0436 51.1289V46.7456C54.727 46.2122 55.9603 44.6622 55.9603 42.7956Z" fill="#00DEA3"/>
<defs>
<filter id="filter0_d_5_30492" x="0.5" y="0" width="104" height="104" filterUnits="userSpaceOnUse" color-interpolation-filters="sRGB">
<feFlood flood-opacity="0" result="BackgroundImageFix"/>
<feColorMatrix in="SourceAlpha" type="matrix" values="0 0 0 0 0 0 0 0 0 0 0 0 0 0 0 0 0 0 127 0" result="hardAlpha"/>
<feOffset dy="6"/>
<feGaussianBlur stdDeviation="8"/>
<feColorMatrix type="matrix" values="0 0 0 0 0 0 0 0 0 0.870588 0 0 0 0 0.639216 0 0 0 0.16 0"/>
<feBlend mode="normal" in2="BackgroundImageFix" result="effect1_dropShadow_5_30492"/>
<feBlend mode="normal" in="SourceGraphic" in2="effect1_dropShadow_5_30492" result="shape"/>
</filter>
</defs>
</svg>
