<svg width="67" height="67" viewBox="0 0 67 67" fill="none" xmlns="http://www.w3.org/2000/svg">
<path d="M19.5833 50.5V19.9368C19.5831 19.2873 19.7987 18.6561 20.1962 18.1423C20.5936 17.6286 21.1505 17.2614 21.7793 17.0984C22.408 16.9355 23.0731 16.986 23.6701 17.2421C24.267 17.4981 24.762 17.9452 25.0773 18.5131L42.006 48.9869C42.3213 49.5548 42.8163 50.0019 43.4132 50.2579C44.0102 50.514 44.6753 50.5645 45.3041 50.4016C45.9329 50.2386 46.4897 49.8714 46.8872 49.3577C47.2846 48.8439 47.5002 48.2127 47.5 47.5632V17M14 28.1667H53.0833M14 39.3333H53.0833" stroke="white" stroke-width="7" stroke-linecap="round" stroke-linejoin="round"/>
</svg>
