<svg width="19" height="21" viewBox="0 0 19 21" fill="none" xmlns="http://www.w3.org/2000/svg">
<path d="M16.4285 13.1798C15.7382 12.7715 14.9609 12.6532 14.191 12.6257C13.545 12.6026 12.5812 12.1785 12.5812 10.9747C12.5812 10.0777 13.291 9.35589 14.1913 9.32369C14.9612 9.29614 15.7384 9.17766 16.4285 8.76951C18.1422 7.75596 18.8981 5.62826 18.2213 3.72339C17.5445 1.81853 15.6304 0.686432 13.6816 1.03848C11.7329 1.39053 10.3122 3.12509 10.3123 5.15221C10.3123 5.96151 10.5933 6.70627 10.9518 7.39702C11.2533 7.97798 11.4059 9.05627 10.3717 9.66792C9.60239 10.1229 8.64227 9.83482 8.1627 9.04856C7.75761 8.38446 7.2686 7.76222 6.58396 7.35722C4.87031 6.34367 2.69365 6.73684 1.42172 8.28968C0.149792 9.84253 0.149792 12.1067 1.42172 13.6596C2.69365 15.2124 4.87031 15.6056 6.58396 14.5921C7.26841 14.1872 7.75746 13.5654 8.1623 12.9017C8.49473 12.3567 9.32499 11.662 10.3717 12.2815C11.1398 12.7362 11.3773 13.7323 10.9515 14.5528C10.593 15.2435 10.3124 15.9881 10.3124 16.7972C10.3124 18.8243 11.7331 20.5588 13.6817 20.9108C15.6304 21.2628 17.5445 20.1307 18.2213 18.2258C18.8981 16.321 18.1421 14.1934 16.4285 13.1798Z" fill="#43444B"/>
</svg>
