<svg width="10" height="14" viewBox="0 0 10 14" fill="none" xmlns="http://www.w3.org/2000/svg">
<path fill-rule="evenodd" clip-rule="evenodd" d="M9.24504 4.30816C9.09932 2.77931 7.79403 2.26676 6.14605 2.12077L6.146 0L4.86898 0.000221531L4.86905 2.0651C4.53377 2.06506 4.1907 2.07176 3.84985 2.07864L3.85004 8.89949e-05L2.57404 5.16109e-05L2.57357 2.12022C2.29716 2.12593 2.02571 2.13112 1.76103 2.13129L1.76087 2.12472L0 2.12411L0.000335565 3.50283C0.000335565 3.50283 0.943121 3.48466 0.927449 3.50221C1.44458 3.50237 1.61322 3.80584 1.66184 4.06787L1.66195 6.48387C1.69764 6.48407 1.74419 6.48557 1.7969 6.49287L1.66237 6.49296L1.66171 9.87763C1.63902 10.0422 1.54335 10.3046 1.18206 10.3052C1.19839 10.3198 0.254001 10.3049 0.254001 10.3049L0.000420934 11.847L1.66219 11.8468C1.84984 11.847 2.03565 11.8491 2.21943 11.8511C2.33845 11.8524 2.45664 11.8537 2.5739 11.8545L2.57452 13.9997L3.84984 14L3.85014 11.8776C4.19996 11.885 4.53884 11.8878 4.86967 11.8875L4.86912 14L6.1458 13.9999L6.1462 11.8588C8.29257 11.7342 9.79517 11.1874 9.98112 9.14989C10.1317 7.50884 9.3686 6.77651 8.15012 6.48032C8.89015 6.09852 9.35328 5.42694 9.24504 4.30816ZM7.45839 8.89456C7.45873 10.3658 5.17257 10.3334 4.12749 10.3185C4.0339 10.3172 3.95027 10.316 3.87912 10.3161L3.87944 7.47419C3.96643 7.47421 4.07207 7.47169 4.19174 7.46883C5.26284 7.44326 7.45756 7.39095 7.45839 8.89456ZM4.08954 6.17579C4.96207 6.19023 6.86397 6.2217 6.86433 4.88502C6.8645 3.5176 5.03476 3.56675 4.14115 3.59076C4.04069 3.59346 3.95206 3.59584 3.87919 3.59585L3.87912 6.17331C3.93926 6.1733 4.01014 6.17447 4.08954 6.17579Z" fill="#FFCC29"/>
</svg>
