<svg width="54" height="54" viewBox="0 0 54 54" fill="none" xmlns="http://www.w3.org/2000/svg">
<path fill-rule="evenodd" clip-rule="evenodd" d="M27.0002 47.52C40.1225 47.52 50.7602 36.8823 50.7602 23.76C50.7602 10.6377 40.1225 0 27.0002 0C13.8779 0 3.24023 10.6377 3.24023 23.76C3.24023 29.7532 5.45915 35.2281 9.12026 39.408C9.82252 40.2098 10.2602 41.2209 10.2602 42.2868V48.7072C10.2602 51.6565 13.3432 53.5917 15.9992 52.3094L25.9031 47.5283C25.9099 47.525 25.9098 47.5153 25.9029 47.5122C25.894 47.5082 25.8972 47.4949 25.9069 47.4953C26.2693 47.5117 26.6338 47.52 27.0002 47.52Z" fill="#CC561E"/>
<path fill-rule="evenodd" clip-rule="evenodd" d="M23.8691 24.5652C23.8691 26.222 25.2123 27.5652 26.8691 27.5652H27.13C28.7869 27.5652 30.13 26.222 30.13 24.5652L30.13 11.0869C30.13 9.43006 28.7869 8.08691 27.13 8.08691H26.8691C25.2123 8.08691 23.8691 9.43006 23.8691 11.0869V24.5652ZM26.9996 35.913C28.7285 35.913 30.13 34.5115 30.13 32.7826C30.13 31.0537 28.7285 29.6521 26.9996 29.6521C25.2707 29.6521 23.8691 31.0537 23.8691 32.7826C23.8691 34.5115 25.2707 35.913 26.9996 35.913Z" fill="white"/>
</svg>
